PathFileType	4	(X/Y/Z)	TVC_20_BWA2_walk_RCNL2025.trc
DataRate	CameraRate	NumFrames	NumMarkers	Units	OrigDataRate	OrigDataStartFrame	OrigNumFrames
100	100	13	27	mm	100	111	221
Frame#	Time	R_Shoulder			L_Shoulder			C7			J_Notch			R_Elbow			L_Elbow			R_Wrist			L_Wrist			R_Asis			L_Asis			R_Psis			L_Psis			Sacral			Thoracic			Sternum			R_Thigh_Lateral			R_Knee_Lateral			R_Shank_Lateral			R_Ankle_Lateral			R_Heel			R_Toe			L_Thigh_Lateral			L_Knee_Lateral			L_Shank_Lateral			L_Ankle_Lateral			L_Heel			L_Toe		
		X1	Y1	Z1	X2	Y2	Z2	X3	Y3	Z3	X4	Y4	Z4	X5	Y5	Z5	X6	Y6	Z6	X7	Y7	Z7	X8	Y8	Z8	X9	Y9	Z9	X10	Y10	Z10	X11	Y11	Z11	X12	Y12	Z12	X13	Y13	Z13	X14	Y14	Z14	X15	Y15	Z15	X16	Y16	Z16	X17	Y17	Z17	X18	Y18	Z18	X19	Y19	Z19	X20	Y20	Z20	X21	Y21	Z21	X22	Y22	Z22	X23	Y23	Z23	X24	Y24	Z24	X25	Y25	Z25	X26	Y26	Z26	X27	Y27	Z27
111	1.10000000	754.642090	1358.728394	150.941162	711.190857	1387.251465	-212.014954	703.670776	1426.432007	-16.931519	822.984375	1294.715820	-34.941395	663.407532	1059.877441	252.573929	722.863708	1082.747314	-336.302856	805.076691	840.012939	249.605949	932.658722	931.773071	-293.354462	789.158569	967.627930	98.179596	763.666931	975.693848	-180.299286	629.257568	967.154541	22.375338	608.056519	965.555908	-63.572033	618.657043	966.355225	-20.598348	593.882629	1198.092407	-26.388092	836.380005	1153.164917	-50.861721	860.584961	654.772339	169.990936	952.326172	481.467072	89.891655	950.135254	297.198517	141.469284	994.846436	72.151993	62.493793	952.496643	45.872566	12.616858	1143.725464	53.789070	40.473255	630.248901	623.744751	-239.751541	608.190796	456.277832	-164.296616	486.755463	313.584686	-209.294418	341.771576	122.714073	-114.831070	297.735565	141.532089	-75.972481	444.580566	34.700066	-76.642570
112	1.11000000	770.160767	1358.008545	152.584366	725.516724	1387.711182	-210.263275	718.762268	1426.383911	-14.826889	838.302551	1295.035034	-33.627495	679.864380	1058.457275	253.124054	733.161743	1082.783569	-333.866486	821.054962	838.265686	249.703560	942.782379	931.041870	-292.825455	805.368225	968.350403	98.543144	779.555542	975.264038	-179.526642	645.271606	967.225403	22.847666	623.980896	964.781311	-63.307175	634.626251	966.003357	-20.229754	609.384583	1197.756714	-25.292030	852.174561	1153.633179	-50.002098	878.684448	656.419739	169.686996	969.004272	481.799072	89.778664	964.287415	297.380951	141.530533	997.946411	70.846634	61.751564	953.904236	46.010075	12.638367	1146.115601	47.860237	37.516670	648.438293	622.445129	-240.416885	628.042603	453.893066	-166.608917	502.390839	314.588104	-210.940247	350.856903	129.711395	-117.183456	308.127960	151.346451	-78.587692	446.364502	35.187263	-76.902229
113	1.12000000	785.755859	1357.480713	154.150238	739.842834	1388.333618	-208.557770	733.893188	1426.515869	-12.766602	853.613281	1295.502197	-32.373993	696.565002	1057.213623	253.656052	743.155212	1082.998047	-331.415222	837.360626	836.754578	249.741089	952.419617	930.217712	-292.460571	821.453613	969.319885	98.953102	795.388855	974.923584	-178.690063	661.172974	967.514160	23.273340	639.810364	964.059509	-63.114117	650.491669	965.786835	-19.920388	624.841675	1197.635864	-24.226322	867.899292	1154.234619	-49.169388	896.291870	658.100769	169.507034	985.026672	482.073395	89.734680	977.868713	297.642944	141.719986	1000.626648	69.933128	61.192291	954.996826	46.380150	12.803614	1148.086548	42.752098	34.931961	667.664856	620.895630	-241.126816	649.314941	451.344513	-168.964828	519.579895	315.533630	-212.649857	361.440094	137.254837	-119.624977	320.206757	161.741898	-81.242287	449.015167	36.237499	-77.371643
114	1.13000000	801.391907	1357.139404	155.610382	754.127869	1389.098755	-206.923508	749.023804	1426.813110	-10.786704	868.872986	1296.092773	-31.213085	713.479797	1056.155396	254.180588	752.893738	1083.378784	-328.975098	853.984802	835.504333	249.713959	961.599152	929.282806	-292.249908	837.372559	970.499451	99.405495	811.078918	974.663757	-177.819611	676.917419	968.004761	23.671257	655.485107	963.397583	-62.951714	666.201263	965.701172	-19.640228	640.208984	1197.724121	-23.192114	883.499939	1154.941895	-48.394718	913.262878	659.731384	169.459778	1000.245300	482.232056	89.754395	990.686218	297.906006	141.991699	1002.947754	69.379326	60.767601	955.877747	46.917320	13.039876	1149.720581	38.551262	32.742264	687.858887	619.127808	-241.861176	671.952332	448.699921	-171.300171	538.346008	316.438263	-214.386749	373.585938	145.306427	-122.117828	333.996674	172.605957	-83.885170	452.806244	37.981213	-78.115959
115	1.14000000	817.032349	1356.979736	156.940277	768.327698	1389.988281	-205.383896	764.115356	1427.264648	-8.920276	884.039307	1296.787109	-30.175543	730.573669	1055.291626	254.707199	762.428528	1083.912231	-326.571442	870.912476	834.539124	249.617432	970.352417	928.222076	-292.182144	853.087524	971.850159	99.895752	826.549316	974.483093	-176.946960	692.466309	968.683228	24.060833	670.953979	962.813477	-62.778370	681.710144	965.748352	-19.358768	655.445496	1198.017822	-22.190338	898.926453	1155.733276	-47.708916	929.458191	661.231628	169.542816	1014.530090	482.227051	89.830177	1002.550354	298.099365	142.301834	1004.947205	69.130684	60.430943	956.611023	47.552784	13.283145	1151.072876	35.270794	30.945770	708.914795	617.202087	-242.593658	695.861938	446.050537	-173.551193	558.672363	317.338013	-216.112854	387.330475	153.800552	-124.622589	349.478302	183.790985	-86.466217	458.034515	40.513710	-79.191994
116	1.15000000	832.641479	1357.000000	158.120377	782.398315	1390.988037	-203.959473	779.132263	1427.865601	-7.195560	899.073364	1297.571899	-29.288588	747.807556	1054.632446	255.242966	771.810425	1084.585938	-324.227478	888.122131	833.882507	249.446815	978.711914	927.025024	-292.245316	868.566406	973.334473	100.418716	841.740173	974.389648	-176.102432	707.788269	969.539124	24.459490	686.177246	962.335632	-62.557045	696.982758	965.937378	-19.048778	670.515930	1198.515869	-21.222013	914.135620	1156.594360	-47.139740	944.755554	662.533691	169.743439	1027.776001	482.025940	89.952812	1013.296021	298.168915	142.613678	1006.649780	69.120132	60.143688	957.232666	48.223949	13.484869	1152.180176	32.860378	29.520538	730.693970	615.206848	-243.293808	720.917664	443.507751	-175.660446	580.499390	318.287384	-217.791687	402.683197	162.637878	-127.099953	366.593597	195.114105	-88.938904	465.004120	43.876400	-80.640442
117	1.16000000	848.185425	1357.203369	159.137024	796.299194	1392.089478	-202.666809	794.044434	1428.617554	-5.634653	913.941589	1298.442749	-28.573767	765.139954	1054.190674	255.791229	781.088135	1085.390381	-321.962952	905.585541	833.557159	249.197685	986.709595	925.687012	-292.427597	883.783081	974.920227	100.968979	856.612488	974.402771	-175.312012	722.859131	970.566406	24.880056	701.128906	962.001221	-62.260216	711.994019	966.283813	-18.690080	685.392456	1199.219971	-20.288628	929.092957	1157.520630	-46.709110	959.062683	663.589966	170.041046	1039.908569	481.615875	90.112099	1022.802002	298.083374	142.901199	1008.076416	69.277618	59.878735	957.760864	48.881046	13.615440	1153.069702	31.221466	28.430332	753.032837	613.253540	-243.929977	746.966492	441.197571	-177.582016	603.726074	319.355316	-219.391754	419.631622	171.680374	-129.512650	385.254761	206.359131	-91.263275	474.007996	48.042023	-82.478889
118	1.17000000	863.632935	1357.598877	159.982849	809.997070	1393.290894	-201.517761	808.828186	1429.529175	-4.252849	928.616882	1299.404297	-28.045162	782.528076	1053.981934	256.351013	790.306580	1086.320435	-319.793365	923.268616	833.585144	248.866219	994.375031	924.210693	-292.717911	898.717102	976.583313	101.541428	871.150146	974.552490	-174.594406	737.662659	971.763184	25.328634	715.797302	961.853882	-61.873985	726.729980	966.808533	-18.272676	700.055847	1200.134033	-19.392483	943.773987	1158.517700	-46.430687	972.329102	664.380066	170.410385	1050.887817	481.005219	90.297363	1031.005249	297.836975	143.150116	1009.249634	69.538010	59.621387	958.204773	49.490383	13.664309	1153.764404	30.224909	27.630472	775.753235	611.468140	-244.472839	773.835571	439.252686	-179.285110	628.214355	320.617676	-220.889191	438.146393	180.748810	-131.827499	405.355255	217.281021	-93.408936	485.309113	52.906784	-84.697090
119	1.18000000	878.955933	1358.201904	160.656723	823.469238	1394.596924	-200.519043	823.466858	1430.614502	-3.058677	943.080200	1300.469238	-27.708132	799.929443	1054.024292	256.916901	799.505554	1087.376343	-317.729523	941.132660	833.987366	248.449699	1001.734619	922.606476	-293.106216	913.353088	978.309937	102.131912	885.359253	974.877563	-173.959000	752.189819	973.130859	25.803389	730.184448	961.939514	-61.400562	741.187134	967.535187	-17.798587	714.496155	1201.263062	-18.536858	958.165100	1159.600098	-46.308208	984.553284	664.913940	170.824982	1060.707886	480.222473	90.497772	1037.907227	297.448364	143.356903	1010.196167	69.846840	59.367935	958.570251	50.034508	13.637259	1154.286743	29.728464	27.072985	798.675598	609.980774	-244.898987	801.339722	437.803192	-180.755600	653.796448	322.147156	-222.269516	458.186401	189.624268	-134.017319	426.780426	227.613068	-95.357658	499.123688	58.291569	-87.255371
120	1.19000000	894.130005	1359.032104	161.163345	836.705811	1396.017456	-199.672287	837.950684	1431.889771	-2.054520	957.320618	1301.656250	-27.558792	817.302185	1054.338013	257.479767	808.718262	1088.563721	-315.777588	959.136200	834.783173	247.946884	1008.810791	920.892578	-293.583771	927.680542	980.096619	102.737724	899.266174	975.421509	-173.404831	766.438599	974.672974	26.294569	744.304626	962.302246	-60.858482	755.371613	968.487610	-17.281957	728.712036	1202.610718	-17.725950	972.263916	1160.789551	-46.334827	995.782227	665.230652	171.259995	1069.394897	479.312561	90.702354	1043.571533	296.955811	143.525848	1010.946838	70.163406	59.122654	958.863342	50.510052	13.551783	1154.660034	29.592146	26.710703	821.632812	608.914062	-245.194000	829.288635	436.966614	-181.994843	680.284546	324.001587	-223.527893	479.703156	198.054428	-136.062317	449.416992	237.076691	-97.104973	515.608704	63.952915	-90.086800
121	1.20000000	909.134338	1360.111572	161.512451	849.710999	1397.565674	-198.974564	852.275574	1433.370728	-1.237660	971.335754	1302.986938	-27.584278	834.606140	1054.942749	258.027893	817.970520	1089.892212	-313.939728	977.237030	835.989105	247.358391	1015.622498	919.094208	-294.142990	941.693542	981.948547	103.357841	912.912964	976.227234	-172.921036	780.413208	976.392883	26.785749	758.181580	962.979248	-60.280472	769.297394	969.686066	-16.747361	742.710632	1204.177856	-16.964588	986.078674	1162.111206	-46.493500	1006.104675	665.392029	171.694122	1077.001465	478.331055	90.900002	1048.112915	296.410522	143.665436	1011.534912	70.461548	58.894165	959.091675	50.924156	13.431625	1154.908569	29.689964	26.500166	844.481934	608.371582	-245.354370	857.493469	436.838623	-183.016663	707.482605	326.212585	-224.667831	502.643372	205.765121	-137.950851	473.159973	245.393478	-98.660309	534.855164	69.602867	-93.103279
122	1.21000000	923.952148	1361.460693	161.717636	862.502991	1399.253906	-198.419205	866.442505	1435.067871	-0.601529	985.131165	1304.482056	-27.763832	851.803040	1055.855225	258.548828	827.280640	1091.372437	-312.214996	995.394196	837.617615	246.686729	1022.185913	917.241943	-294.777405	955.391052	983.876160	103.992706	926.351807	977.330933	-172.488647	794.123596	978.291626	27.256124	771.845215	963.996582	-59.709129	782.984406	971.144104	-16.226502	756.505615	1205.960327	-16.257765	999.627136	1163.589844	-46.758430	1015.637268	665.472839	172.110153	1083.599976	477.337311	91.079330	1051.680542	295.868835	143.784668	1011.994141	70.728592	58.691902	959.264648	51.290485	13.301507	1155.056763	29.917486	26.403404	867.113525	608.429077	-245.388046	885.772949	437.484955	-183.842651	735.197815	328.776428	-225.698654	526.950806	212.476334	-139.679459	497.917206	252.298721	-100.045341	556.887695	74.935249	-96.204628
123	1.22000000	938.570862	1363.093872	161.795227	875.112061	1401.090576	-197.996979	880.456177	1436.983887	-0.136979	998.719238	1306.157227	-28.070555	868.857300	1057.085938	259.031219	836.659424	1093.014160	-310.600647	1013.569855	839.674774	245.936089	1028.516052	915.369324	-295.481232	968.777405	985.890808	104.643570	939.638855	978.756653	-172.083481	807.584656	980.365601	27.683384	785.328064	965.365051	-59.191116	796.456360	972.865326	-15.753866	770.115845	1207.946777	-15.610109	1012.934937	1165.245117	-47.097317	1024.508057	665.548645	172.494781	1089.275024	476.387878	91.228661	1054.439087	295.384766	143.890335	1012.355530	70.962822	58.523327	959.392700	51.625469	13.182732	1155.128296	30.195242	26.388769	889.455811	609.128845	-245.313477	913.958435	438.936462	-184.497192	763.251892	331.648987	-226.632233	552.567017	217.921188	-141.252060	523.611572	257.555328	-101.290649	581.669495	79.654762	-99.289536
